<svg width="360" height="147" viewBox="0 0 360 147" fill="none" xmlns="http://www.w3.org/2000/svg">
<rect x="-2.9046" y="27.9053" width="30" height="8" rx="2" transform="rotate(-135 -2.9046 27.9053)" fill="#E5E8F0"/>
<rect x="27.0205" y="35.9238" width="30" height="8" rx="2" transform="rotate(-135 27.0205 35.9238)" fill="#E5E8F0"/>
<rect x="56.9457" y="43.9421" width="30" height="8" rx="2" transform="rotate(-135 56.9457 43.9421)" fill="#E5E8F0"/>
<rect x="86.8708" y="51.9607" width="30" height="8" rx="2" transform="rotate(-135 86.8708 51.9607)" fill="#E5E8F0"/>
<rect x="116.796" y="59.979" width="30" height="8" rx="2" transform="rotate(-135 116.796 59.979)" fill="#E5E8F0"/>
<rect x="146.721" y="67.9973" width="30" height="8" rx="2" transform="rotate(-135 146.721 67.9973)" fill="#E5E8F0"/>
<rect x="176.646" y="76.0159" width="30" height="8" rx="2" transform="rotate(-135 176.646 76.0159)" fill="#E5E8F0"/>
<rect x="206.571" y="84.0342" width="30" height="8" rx="2" transform="rotate(-135 206.571 84.0342)" fill="#E5E8F0"/>
<rect x="236.496" y="92.0527" width="30" height="8" rx="2" transform="rotate(-135 236.496 92.0527)" fill="#E5E8F0"/>
<rect x="266.422" y="100.071" width="30" height="8" rx="2" transform="rotate(-135 266.422 100.071)" fill="#E5E8F0"/>
<rect x="296.347" y="108.09" width="30" height="8" rx="2" transform="rotate(-135 296.347 108.09)" fill="#E5E8F0"/>
<rect x="326.272" y="116.108" width="30" height="8" rx="2" transform="rotate(-135 326.272 116.108)" fill="#E5E8F0"/>
<rect x="356.197" y="124.126" width="30" height="8" rx="2" transform="rotate(-135 356.197 124.126)" fill="#E5E8F0"/>
<rect x="371.943" y="131.673" width="30" height="8" rx="2" transform="rotate(165 371.943 131.673)" fill="#E5E8F0"/>
<rect x="342.018" y="123.654" width="30" height="8" rx="2" transform="rotate(165 342.018 123.654)" fill="#E5E8F0"/>
<rect x="312.093" y="115.636" width="30" height="8" rx="2" transform="rotate(165 312.093 115.636)" fill="#E5E8F0"/>
<rect x="282.168" y="107.617" width="30" height="8" rx="2" transform="rotate(165 282.168 107.617)" fill="#E5E8F0"/>
<rect x="252.243" y="99.5991" width="30" height="8" rx="2" transform="rotate(165 252.243 99.5991)" fill="#E5E8F0"/>
<rect x="222.318" y="91.5806" width="30" height="8" rx="2" transform="rotate(165 222.318 91.5806)" fill="#E5E8F0"/>
<rect x="192.393" y="83.5623" width="30" height="8" rx="2" transform="rotate(165 192.393 83.5623)" fill="#E5E8F0"/>
<rect x="162.468" y="75.5439" width="30" height="8" rx="2" transform="rotate(165 162.468 75.5439)" fill="#E5E8F0"/>
<rect x="132.542" y="67.5254" width="30" height="8" rx="2" transform="rotate(165 132.542 67.5254)" fill="#E5E8F0"/>
<rect x="102.617" y="59.5071" width="30" height="8" rx="2" transform="rotate(165 102.617 59.5071)" fill="#E5E8F0"/>
<rect x="72.6921" y="51.4885" width="30" height="8" rx="2" transform="rotate(165 72.6921 51.4885)" fill="#E5E8F0"/>
<rect x="42.767" y="43.4702" width="30" height="8" rx="2" transform="rotate(165 42.767 43.4702)" fill="#E5E8F0"/>
<rect x="12.8419" y="35.4519" width="30" height="8" rx="2" transform="rotate(165 12.8419 35.4519)" fill="#E5E8F0"/>
</svg>
