<svg width="256" height="256" viewBox="0 0 256 256" fill="none" xmlns="http://www.w3.org/2000/svg">
<path fill-rule="evenodd" clip-rule="evenodd" d="M155.707 3.0076C147.017 1.08992 137.996 0.055385 128.741 0.00292969L125.168 5.08313C124.357 6.23663 122.764 6.51403 121.611 5.70273C120.457 4.89143 120.18 3.29865 120.991 2.14515L122.415 0.120501C113.208 0.515808 104.253 1.88375 95.65 4.12417L93.5223 9.93208C93.0372 11.2563 91.5704 11.9364 90.2463 11.4513C88.9221 10.9662 88.2419 9.49952 88.727 8.17535L89.5716 5.86981C80.8622 8.60758 72.5542 12.2513 64.7579 16.6904L64.2099 22.8064C64.0841 24.211 62.8434 25.2476 61.4388 25.1218C60.0342 24.9959 58.9975 23.7552 59.1234 22.3506L59.3379 19.9566C51.6957 24.8234 44.6047 30.4788 38.1794 36.8081L39.2281 42.8293C39.4701 44.2186 38.5399 45.541 37.1506 45.783C35.7613 46.0249 34.4389 45.0948 34.1969 43.7055L33.7871 41.3525C27.6927 47.9755 22.2878 55.2429 17.6861 63.0407L20.2801 68.6343C20.8734 69.9137 20.3173 71.4318 19.0379 72.0251C17.7586 72.6184 16.2405 72.0622 15.6472 70.7829L14.6135 68.554C10.4521 76.475 7.09647 84.8856 4.65542 93.6767L8.65649 98.4654C9.5607 99.5476 9.41641 101.158 8.33421 102.062C7.25201 102.966 5.6417 102.822 4.73749 101.74L3.11769 99.8012C1.17119 108.459 0.101915 117.448 0.00811768 126.671L5.14981 130.288C6.3033 131.099 6.58071 132.692 5.76941 133.845C4.95811 134.999 3.36533 135.276 2.21183 134.465L0.0963458 132.977C0.44797 142.174 1.76993 151.122 3.96276 159.722L9.99905 161.933C11.3232 162.419 12.0034 163.885 11.5183 165.209C11.0332 166.534 9.56649 167.214 8.24231 166.729L5.67028 165.786C8.36295 174.514 11.9639 182.843 16.3627 190.663L22.8732 191.246C24.2778 191.372 25.3144 192.612 25.1886 194.017C25.0627 195.422 23.822 196.458 22.4174 196.332L19.5877 196.079C24.4233 203.763 30.0532 210.897 36.3623 217.366L42.8954 216.228C44.2847 215.986 45.6071 216.916 45.8491 218.305C46.091 219.695 45.1609 221.017 43.7716 221.259L40.868 221.765C47.4838 227.915 54.7514 233.374 62.5558 238.026L68.7016 235.176C69.9809 234.583 71.499 235.139 72.0923 236.419C72.6856 237.698 72.1295 239.216 70.8501 239.809L68.0373 241.114C75.9776 245.332 84.4148 248.738 93.2384 251.222L98.5318 246.8C99.614 245.895 101.224 246.04 102.129 247.122C103.033 248.204 102.888 249.814 101.806 250.719L99.341 252.778C108.042 254.769 117.081 255.872 126.358 255.989L130.355 250.306C131.166 249.153 132.759 248.875 133.912 249.687C135.066 250.498 135.343 252.091 134.532 253.244L132.653 255.916C141.912 255.585 150.92 254.271 159.576 252.075L162.001 245.457C162.486 244.133 163.953 243.453 165.277 243.938C166.601 244.423 167.281 245.89 166.796 247.214L165.638 250.376C174.426 247.676 182.812 244.056 190.682 239.627L191.313 232.583C191.439 231.178 192.68 230.142 194.084 230.268C195.489 230.393 196.526 231.634 196.4 233.039L196.098 236.401C203.83 231.534 211.004 225.862 217.504 219.504L216.294 212.561C216.052 211.171 216.983 209.849 218.372 209.607C219.761 209.365 221.084 210.295 221.326 211.684L221.901 214.987C228.075 208.325 233.549 201.005 238.206 193.144L235.243 186.755C234.65 185.475 235.206 183.957 236.485 183.364C237.765 182.771 239.283 183.327 239.876 184.606L241.284 187.643C245.498 179.655 248.892 171.169 251.354 162.294L246.866 156.924C245.962 155.842 246.106 154.231 247.189 153.327C248.271 152.423 249.881 152.567 250.785 153.649L252.89 156.169C254.851 147.435 255.92 138.364 255.995 129.056L250.373 125.102C249.219 124.291 248.942 122.698 249.753 121.544C250.564 120.391 252.157 120.113 253.311 120.925L255.894 122.741C255.519 113.472 254.159 104.456 251.915 95.7969L245.524 93.4557C244.2 92.9706 243.52 91.5039 244.005 90.1797C244.49 88.8556 245.957 88.1754 247.281 88.6605L250.178 89.7218C247.433 80.9508 243.769 72.5857 239.3 64.7392L232.65 64.1434C231.246 64.0175 230.209 62.7768 230.335 61.3722C230.461 59.9676 231.701 58.931 233.106 59.0569L236.032 59.3191C231.133 51.6294 225.436 44.498 219.057 38.0416L212.627 39.1614C211.238 39.4034 209.916 38.4733 209.674 37.0839C209.432 35.6946 210.362 34.3722 211.751 34.1302L214.501 33.6514C207.832 27.5336 200.512 22.1137 192.657 17.5074L186.822 20.2136C185.542 20.8069 184.024 20.2508 183.431 18.9714C182.837 17.6921 183.394 16.174 184.673 15.5807L187.124 14.4441C179.156 10.2873 170.697 6.94441 161.855 4.52579L156.991 8.58981C155.909 9.49403 154.299 9.34974 153.395 8.26753C152.49 7.18533 152.635 5.57502 153.717 4.67081L155.707 3.0076ZM207.6 126.757C207.6 170.682 171.991 206.29 128.066 206.29C84.1411 206.29 48.5327 170.682 48.5327 126.757C48.5327 82.8318 84.1411 47.2235 128.066 47.2235C171.991 47.2235 207.6 82.8318 207.6 126.757ZM128.066 216.232C177.482 216.232 217.541 176.173 217.541 126.757C217.541 77.3412 177.482 37.2819 128.066 37.2819C78.6505 37.2819 38.5911 77.3412 38.5911 126.757C38.5911 176.173 78.6505 216.232 128.066 216.232ZM128.066 212.421C80.755 212.421 42.4018 174.068 42.4018 126.757C42.4018 79.4458 80.755 41.0925 128.066 41.0925C175.377 41.0925 213.731 79.4458 213.731 126.757C213.731 174.068 175.377 212.421 128.066 212.421Z" fill="#38A3A5"/>
<mask id="mask0_112_3114" style="mask-type:alpha" maskUnits="userSpaceOnUse" x="0" y="0" width="256" height="256">
<path d="M128.001 255.998C57.3089 255.998 0.00164026 198.691 0.00164026 127.999L0 0H128.001C198.693 0 256 57.3072 256 127.999V255.998L212.211 224.399C189.704 244.076 160.245 255.998 128.001 255.998Z" fill="#D9D9D9"/>
</mask>
<g mask="url(#mask0_112_3114)">
<path d="M249.5 192C260 193.5 249 171.5 201.518 150.184C197.619 159.62 192.308 179.96 202.252 185.836C216.5 185.836 238.862 190.48 249.5 192Z" fill="#1E2A3A"/>
<path fill-rule="evenodd" clip-rule="evenodd" d="M173.856 142.677L167.867 135.784L160.974 141.773L166.963 148.667L173.856 142.677Z" fill="#38A3A5"/>
<path fill-rule="evenodd" clip-rule="evenodd" d="M164.057 176.683C154.316 162.362 154.211 161.619 165.135 161.33C196.5 160.5 190.466 138.166 179.151 128.638C160.115 112.607 94.4081 108.539 78.7732 112.182C81.4063 111.938 85.0986 115.072 86.8029 121.803C88.0333 126.663 88.2274 133.399 86.2381 142.093C85.7375 163.236 106.852 175.15 122.694 187.605C131.041 194.167 149.803 204.552 162.935 201.176C176.068 197.799 169.155 183.44 164.057 176.683ZM173.856 142.677L167.867 135.784L160.974 141.773L166.963 148.667L173.856 142.677Z" fill="#E8F1EE"/>
<path d="M133.83 100.124C89.8495 99.626 31.5554 60.7823 5.00013 39.5C4.79635 42.4036 15.1533 52.6816 30.1952 65.6681C41.141 75.1182 53.5368 82.717 66.6591 88.7934L91.7367 100.406L70.9874 98.9494L59.5311 98.1454C63.4485 103.814 72.6166 114.599 77.9503 112.384C78.2092 112.276 78.4849 112.209 78.7732 112.182C94.4081 108.539 160.115 112.607 179.151 128.638C190.466 138.166 196.5 160.5 165.135 161.33C154.211 161.619 154.316 162.362 164.057 176.683C169.155 183.44 176.068 197.799 162.935 201.176C149.803 204.552 131.041 194.167 122.694 187.605C106.852 175.15 85.7375 163.236 86.2381 142.093C83.5157 153.991 76.7042 169.556 62.8639 188.999C72.2373 191.547 87.8766 197.522 101.654 206.684C112.002 213.566 121.299 222.245 126.102 232.62C137.3 256.809 159.687 276.862 169.481 283.865C172.456 272.207 178.171 243.049 177.222 219.68C176.273 196.311 193.513 187.38 202.252 185.836C192.308 179.96 197.619 159.62 201.518 150.184C202.648 134.081 188.805 100.745 133.83 100.124Z" fill="#282121"/>
<path fill-rule="evenodd" clip-rule="evenodd" d="M-26.9733 270.077L-22.6788 208.887C-12.6486 207.521 -1.42592 203.269 10.0187 198.932C28.4018 191.967 47.3576 184.784 62.8639 188.999C72.2373 191.547 87.8766 197.522 101.654 206.684C116.029 217.358 137.548 244.767 108.623 269.005C99.0594 275.975 76.5047 276.994 66.4228 276.632L-26.9733 270.077Z" fill="#1E2A3A"/>
<path d="M66.4228 276.632L169.481 283.865C159.687 276.862 137.3 256.809 126.102 232.62C121.299 222.245 112.002 213.566 101.654 206.684C116.029 217.358 137.548 244.767 108.623 269.005C99.0594 275.975 76.5047 276.994 66.4228 276.632Z" fill="#E8F1EE"/>
<path d="M201.518 150.184C202.648 134.081 188.805 100.745 133.83 100.124C89.8495 99.626 31.5554 60.7823 5.00013 39.5C4.79635 42.4036 15.1533 52.6816 30.1952 65.6681C41.141 75.1182 53.5368 82.717 66.6591 88.7934L91.7367 100.406L70.9874 98.9494L59.5311 98.1454C63.4485 103.814 72.6166 114.599 77.9503 112.384M201.518 150.184C249 171.5 260 193.5 249.5 192C238.862 190.48 216.5 185.836 202.252 185.836M201.518 150.184C197.619 159.62 192.308 179.96 202.252 185.836M202.252 185.836C193.513 187.38 176.273 196.311 177.222 219.68C178.171 243.049 172.456 272.207 169.481 283.865M169.481 283.865L66.4228 276.632M169.481 283.865C159.687 276.862 137.3 256.809 126.102 232.62C121.299 222.245 112.002 213.566 101.654 206.684M62.8639 188.999C76.7042 169.556 83.5157 153.991 86.2381 142.093M62.8639 188.999C72.2373 191.547 87.8766 197.522 101.654 206.684M62.8639 188.999C47.3576 184.784 28.4018 191.967 10.0187 198.932C-1.42592 203.269 -12.6486 207.521 -22.6788 208.887L-26.9733 270.077L66.4228 276.632M77.9503 112.384C78.2093 112.276 78.4849 112.209 78.7732 112.182M77.9503 112.384C78.2238 112.313 78.4982 112.246 78.7732 112.182M66.4228 276.632C76.5047 276.994 99.0594 275.975 108.623 269.005C137.548 244.767 116.029 217.358 101.654 206.684M78.7732 112.182C94.4081 108.539 160.115 112.607 179.151 128.638C190.466 138.166 196.5 160.5 165.135 161.33C154.211 161.619 154.316 162.362 164.057 176.683C169.155 183.44 176.068 197.799 162.935 201.176C149.803 204.552 131.041 194.167 122.694 187.605C106.852 175.15 85.7375 163.236 86.2381 142.093M78.7732 112.182C81.4063 111.938 85.0986 115.072 86.8029 121.803C88.0333 126.663 88.2274 133.399 86.2381 142.093M167.867 135.784L173.856 142.677L166.963 148.667L160.974 141.773L167.867 135.784Z" stroke="#282121" stroke-width="5.42105"/>
</g>
</svg>
