<svg width="126" height="126" viewBox="0 0 126 126" fill="none" xmlns="http://www.w3.org/2000/svg">
<path fill-rule="evenodd" clip-rule="evenodd" d="M49.3627 1.479C53.64 0.535064 58.0806 0.0258334 62.6357 0L64.3946 2.50074C64.7939 3.0685 65.5779 3.20505 66.1456 2.80571C66.7134 2.40638 66.85 1.62239 66.4506 1.05462L65.7496 0.0578604C70.2814 0.252421 74.6892 0.925721 78.9237 2.02847L79.9711 4.88749C80.2098 5.53927 80.9318 5.87406 81.5835 5.63529C82.2353 5.39651 82.5701 4.67457 82.3313 4.0228L81.9155 2.88768C86.2024 4.23524 90.2917 6.0287 94.1292 8.21369L94.3989 11.2244C94.4609 11.9157 95.0716 12.426 95.7629 12.364C96.4543 12.3021 96.9645 11.6914 96.9026 11L96.797 9.82137C100.559 12.2169 104.049 15.0006 107.212 18.1159L106.695 21.08C106.576 21.7638 107.034 22.4147 107.718 22.5338C108.402 22.6529 109.053 22.1951 109.172 21.5113L109.373 20.3527C112.373 23.6127 115.034 27.1899 117.299 31.0281L116.022 33.7816C115.73 34.4113 116.003 35.1585 116.633 35.4505C117.263 35.7426 118.01 35.4688 118.302 34.8391L118.811 33.7418C120.859 37.6407 122.511 41.7805 123.713 46.1077L121.743 48.4649C121.298 48.9976 121.369 49.7902 121.902 50.2353C122.434 50.6803 123.227 50.6093 123.672 50.0766L124.469 49.1222C125.428 53.3836 125.954 57.8084 126 62.3482L123.469 64.1283C122.901 64.5276 122.765 65.3116 123.164 65.8794C123.563 66.4471 124.347 66.5837 124.915 66.1843L125.957 65.4519C125.783 69.9787 125.133 74.3832 124.053 78.6163L121.082 79.7048C120.43 79.9436 120.096 80.6655 120.334 81.3173C120.573 81.9691 121.295 82.3039 121.947 82.0651L123.213 81.6012C121.888 85.897 120.115 89.9966 117.95 93.8457L114.745 94.1328C114.054 94.1948 113.544 94.8054 113.606 95.4968C113.668 96.1882 114.278 96.6984 114.97 96.6365L116.363 96.5117C113.982 100.294 111.211 103.805 108.106 106.989L104.89 106.429C104.206 106.31 103.556 106.768 103.436 107.452C103.317 108.136 103.775 108.787 104.459 108.906L105.888 109.155C102.632 112.182 99.0545 114.869 95.213 117.159L92.1881 115.756C91.5584 115.464 90.8112 115.738 90.5191 116.367C90.2271 116.997 90.5008 117.744 91.1306 118.036L92.5149 118.678C88.6066 120.755 84.4537 122.431 80.1107 123.654L77.5053 121.477C76.9726 121.032 76.18 121.103 75.7349 121.636C75.2899 122.168 75.3609 122.961 75.8936 123.406L77.1069 124.42C72.8241 125.399 68.375 125.943 63.8088 126L61.8417 123.203C61.4424 122.635 60.6584 122.499 60.0906 122.898C59.5228 123.297 59.3863 124.081 59.7856 124.649L60.7105 125.964C56.1532 125.801 51.7192 125.155 47.4583 124.073L46.2651 120.816C46.0263 120.165 45.3044 119.83 44.6526 120.069C44.0008 120.307 43.666 121.029 43.9048 121.681L44.4749 123.237C40.149 121.908 36.0216 120.126 32.1479 117.946L31.8372 114.479C31.7752 113.788 31.1646 113.278 30.4732 113.34C29.7818 113.402 29.2716 114.012 29.3335 114.704L29.4818 116.358C25.6763 113.963 22.1451 111.171 18.946 108.041L19.5411 104.624C19.6602 103.94 19.2024 103.289 18.5186 103.17C17.8347 103.051 17.1838 103.509 17.0647 104.193L16.7817 105.818C13.7427 102.539 11.0483 98.936 8.75619 95.0667L10.2144 91.9222C10.5065 91.2925 10.2327 90.5452 9.603 90.2532C8.97329 89.9612 8.22607 90.2349 7.93404 90.8646L7.24107 92.3589C5.16702 88.4276 3.49654 84.2504 2.28477 79.8823L4.49333 77.239C4.93839 76.7063 4.86738 75.9137 4.3347 75.4687C3.80203 75.0236 3.00941 75.0946 2.56435 75.6273L1.52847 76.8671C0.563072 72.5684 0.0370483 68.1035 0 63.5221L2.76743 61.5757C3.33519 61.1764 3.47173 60.3924 3.0724 59.8246C2.67307 59.2568 1.88908 59.1203 1.32131 59.5196L0.0500946 60.4137C0.234451 55.8512 0.904007 51.4137 2.00855 47.1514L5.15395 45.999C5.80573 45.7603 6.14053 45.0383 5.90176 44.3865C5.66298 43.7348 4.94105 43.4 4.28927 43.6387L2.86335 44.1611C4.21454 39.8439 6.01779 35.7265 8.21767 31.8643L11.4906 31.5711C12.182 31.5091 12.6922 30.8984 12.6303 30.2071C12.5684 29.5157 11.9577 29.0054 11.2663 29.0674L9.82599 29.1965C12.2373 25.4115 15.0415 21.9013 18.1813 18.7234L21.3461 19.2746C22.0299 19.3937 22.6808 18.9359 22.7999 18.252C22.919 17.5682 22.4612 16.9173 21.7774 16.7982L20.4239 16.5624C23.7066 13.5512 27.3095 10.8834 31.1757 8.61611L34.048 9.94818C34.6778 10.2402 35.425 9.96648 35.717 9.33676C36.0091 8.70704 35.7353 7.95981 35.1056 7.66778L33.8991 7.10827C37.8208 5.06221 41.9848 3.41678 46.3366 2.22628L48.7309 4.22674C49.2635 4.67181 50.0562 4.60079 50.5012 4.06811C50.9463 3.53544 50.8753 2.74282 50.3426 2.29775L49.3627 1.479ZM23.8209 62.3904C23.8209 84.011 41.3477 101.538 62.9682 101.538C84.5887 101.538 102.116 84.011 102.116 62.3904C102.116 40.7698 84.5887 23.2428 62.9682 23.2428C41.3477 23.2428 23.8209 40.7698 23.8209 62.3904ZM62.9681 106.431C38.645 106.431 18.9273 86.7135 18.9273 62.3904C18.9273 38.0672 38.645 18.3494 62.9681 18.3494C87.2911 18.3494 107.009 38.0672 107.009 62.3904C107.009 86.7135 87.2911 106.431 62.9681 106.431ZM62.9681 104.556C86.2552 104.556 105.133 85.6776 105.133 62.3904C105.133 39.1031 86.2552 20.2251 62.9681 20.2251C39.6809 20.2251 20.803 39.1031 20.803 62.3904C20.803 85.6776 39.6809 104.556 62.9681 104.556Z" fill="#38A3A5"/>
<g clip-path="url(#clip0_127_739)">
<path d="M46 80L70.0833 63L46 46V80ZM74.3333 46V80H80V46H74.3333Z" fill="#38A3A5"/>
</g>
<defs>
<clipPath id="clip0_127_739">
<rect width="68" height="68" fill="white" transform="translate(29 29)"/>
</clipPath>
</defs>
</svg>
